<svg width="66" height="66" viewBox="0 0 66 66" fill="none" xmlns="http://www.w3.org/2000/svg">
<path fill-rule="evenodd" clip-rule="evenodd" d="M12.8288 61.8749C10.523 61.8749 8.33258 60.9591 6.68258 59.3298C5.03258 57.7004 4.13745 55.4894 4.13745 53.1835V12.7998C4.13745 10.4939 5.0532 8.30352 6.68258 6.65352C8.31195 5.00352 10.523 4.1084 12.8288 4.1084H53.2126C55.5184 4.1084 57.7088 5.02415 59.3588 6.65352C61.0088 8.2829 61.9039 10.4939 61.9039 12.7998V53.1835C61.9039 55.4894 60.9882 57.6798 59.3588 59.3298C57.7295 60.9798 55.5184 61.8749 53.2126 61.8749H12.8288ZM48.0976 37.4961H41.9926V57.6674H53.2126C53.8019 57.669 54.3857 57.5542 54.9304 57.3294C55.4752 57.1047 55.9701 56.7744 56.3868 56.3577C56.8035 55.9411 57.1337 55.4461 57.3585 54.9014C57.5832 54.3566 57.6981 53.7728 57.6965 53.1835V12.7998C57.697 12.2108 57.5814 11.6275 57.3562 11.0832C57.1311 10.539 56.8008 10.0445 56.3844 9.62799C55.9679 9.21151 55.4734 8.88125 54.9291 8.65611C54.3849 8.43096 53.8016 8.31536 53.2126 8.3159H12.8288C11.6406 8.31916 10.502 8.79262 9.66185 9.6328C8.82167 10.473 8.34822 11.6116 8.34495 12.7998V53.1835C8.34822 54.3717 8.82167 55.5103 9.66185 56.3505C10.502 57.1907 11.6406 57.6641 12.8288 57.6674H35.2688V37.4961H28.5451V30.7724H35.2688V27.1589C35.2688 20.3114 38.6018 17.3001 44.3026 17.3001C46.9715 17.3001 48.4069 17.494 49.0876 17.5889L49.1288 17.593V24.028H45.2513C43.2961 24.028 42.3721 24.8654 42.0916 26.5525C42.0242 26.992 41.9925 27.4362 41.9967 27.8808V30.7559H49.0504L48.0893 37.4796L48.0976 37.4961Z" fill="white"/>
</svg>
