<svg width="66" height="66" viewBox="0 0 66 66" fill="none" xmlns="http://www.w3.org/2000/svg">
<path fill-rule="evenodd" clip-rule="evenodd" d="M33 5.5C25.531 5.5 24.596 5.533 21.6618 5.665C18.7358 5.79975 16.7365 6.2645 14.9875 6.94375C13.1518 7.63349 11.4888 8.71559 10.1145 10.1145C8.71559 11.4888 7.63349 13.1518 6.94375 14.9875C6.2645 16.7365 5.79975 18.7358 5.665 21.6618C5.53025 24.596 5.5 25.531 5.5 33C5.5 40.469 5.53025 41.404 5.665 44.3383C5.79975 47.2643 6.2645 49.2635 6.94375 51.0125C7.63349 52.8482 8.71559 54.5112 10.1145 55.8855C11.4888 57.2844 13.1518 58.3665 14.9875 59.0563C16.7365 59.7355 18.7358 60.2003 21.6618 60.335C24.596 60.467 25.531 60.5 33 60.5C40.469 60.5 41.404 60.467 44.3383 60.335C47.2643 60.2003 49.2635 59.7355 51.0125 59.0563C52.8482 58.3665 54.5112 57.2844 55.8855 55.8855C57.2844 54.5112 58.3665 52.8482 59.0563 51.0125C59.7355 49.2635 60.2003 47.2643 60.335 44.3383C60.467 41.404 60.5 40.469 60.5 33C60.5 25.531 60.467 24.596 60.335 21.6618C60.2003 18.7358 59.7355 16.7365 59.0563 14.9875C58.3665 13.1518 57.2844 11.4888 55.8855 10.1145C54.5112 8.71559 52.8482 7.63349 51.0125 6.94375C49.2635 6.2645 47.2643 5.79975 44.3383 5.665C41.404 5.533 40.469 5.5 33 5.5ZM33 10.4555C40.3425 10.4555 41.2115 10.483 44.11 10.615C46.794 10.7387 48.2488 11.1843 49.2195 11.561C50.501 12.0615 51.4195 12.6583 52.382 13.618C53.3445 14.5805 53.9385 15.499 54.439 16.7805C54.813 17.7513 55.264 19.206 55.385 21.8873C55.517 24.7885 55.5445 25.6548 55.5445 33C55.5445 40.3425 55.517 41.2115 55.385 44.11C55.2613 46.794 54.813 48.2488 54.439 49.2195C53.9981 50.4141 53.2952 51.4947 52.382 52.382C51.4195 53.3445 50.501 53.9385 49.2195 54.439C48.2488 54.813 46.794 55.264 44.1128 55.385C41.2143 55.517 40.3453 55.5445 33 55.5445C25.6575 55.5445 24.7858 55.517 21.89 55.385C19.206 55.2613 17.7513 54.813 16.7805 54.439C15.5859 53.9981 14.5053 53.2952 13.618 52.382C12.7048 51.4947 12.0019 50.4141 11.561 49.2195C11.1843 48.2488 10.736 46.794 10.615 44.1128C10.483 41.2115 10.4555 40.3453 10.4555 33C10.4555 25.6575 10.483 24.7885 10.615 21.89C10.7387 19.206 11.1843 17.7513 11.561 16.7805C12.0615 15.499 12.6583 14.5805 13.618 13.618C14.5805 12.6555 15.499 12.0615 16.7805 11.561C17.7513 11.1843 19.206 10.736 21.8873 10.615C24.7885 10.483 25.6548 10.4555 33 10.4555ZM33 42.1658C30.5691 42.1658 28.2378 41.2001 26.5188 39.4812C24.7999 37.7623 23.8343 35.4309 23.8343 33C23.8343 30.5691 24.7999 28.2378 26.5188 26.5188C28.2378 24.7999 30.5691 23.8343 33 23.8343C35.4309 23.8343 37.7623 24.7999 39.4812 26.5188C41.2001 28.2378 42.1658 30.5691 42.1658 33C42.1658 35.4309 41.2001 37.7623 39.4812 39.4812C37.7623 41.2001 35.4309 42.1658 33 42.1658ZM33 18.8788C31.1456 18.8788 29.3093 19.244 27.596 19.9537C25.8828 20.6633 24.326 21.7035 23.0148 23.0148C21.7035 24.326 20.6633 25.8828 19.9537 27.596C19.244 29.3093 18.8788 31.1456 18.8788 33C18.8788 34.8544 19.244 36.6907 19.9537 38.404C20.6633 40.1172 21.7035 41.674 23.0148 42.9852C24.326 44.2965 25.8828 45.3367 27.596 46.0463C29.3093 46.756 31.1456 47.1213 33 47.1213C36.7452 47.1213 40.337 45.6335 42.9852 42.9852C45.6335 40.337 47.1213 36.7452 47.1213 33C47.1213 29.2548 45.6335 25.663 42.9852 23.0148C40.337 20.3665 36.7452 18.8788 33 18.8788ZM50.9795 18.3205C50.9795 18.7539 50.8941 19.183 50.7283 19.5834C50.5625 19.9837 50.3194 20.3475 50.013 20.654C49.7065 20.9604 49.3427 21.2035 48.9424 21.3693C48.542 21.5351 48.1129 21.6205 47.6795 21.6205C47.2461 21.6205 46.817 21.5351 46.4166 21.3693C46.0163 21.2035 45.6525 20.9604 45.3461 20.654C45.0396 20.3475 44.7965 19.9837 44.6307 19.5834C44.4649 19.183 44.3795 18.7539 44.3795 18.3205C44.3795 17.4453 44.7272 16.6059 45.3461 15.987C45.9649 15.3682 46.8043 15.0205 47.6795 15.0205C48.5547 15.0205 49.3941 15.3682 50.013 15.987C50.6318 16.6059 50.9795 17.4453 50.9795 18.3205Z" fill="white"/>
</svg>
