<svg width="66" height="66" viewBox="0 0 66 66" fill="none" xmlns="http://www.w3.org/2000/svg">
<path d="M30.25 25.575C26.3726 24.419 22.2294 24.5141 18.4091 25.8469C14.5888 27.1796 11.2856 29.6823 8.96868 32.9993C6.65174 36.3163 5.43887 40.2791 5.50237 44.3247C5.56587 48.3703 6.90251 52.293 9.32241 55.5357C11.7423 58.7784 15.1225 61.1761 18.9827 62.3883C22.8429 63.6005 26.987 63.5656 30.8262 62.2884C34.6655 61.0113 38.0047 58.5569 40.3696 55.2738C42.7345 51.9908 44.0047 48.0461 44 44V24.75C47.6667 28.4167 53.1667 30.25 60.5 30.25V16.5C53.1667 16.5 47.6667 11.9167 44 2.75H30.25V44M30.25 44C30.25 42.9122 29.9274 41.8488 29.3231 40.9444C28.7187 40.0399 27.8597 39.3349 26.8547 38.9187C25.8498 38.5024 24.7439 38.3935 23.677 38.6057C22.6101 38.8179 21.6301 39.3417 20.8609 40.1109C20.0917 40.8801 19.5679 41.8601 19.3557 42.927C19.1435 43.9939 19.2524 45.0998 19.6687 46.1048C20.0849 47.1098 20.7899 47.9687 21.6944 48.5731C22.5988 49.1774 23.6622 49.5 24.75 49.5C26.2087 49.5 27.6076 48.9205 28.6391 47.8891C29.6705 46.8576 30.25 45.4587 30.25 44Z" stroke="white" stroke-width="5" stroke-linecap="round" stroke-linejoin="round"/>
</svg>
